<?xml version="1.0" encoding="UTF-8" standalone="no"?>
<!DOCTYPE svg PUBLIC "-//W3C//DTD SVG 1.1//EN" "http://www.w3.org/Graphics/SVG/1.1/DTD/svg11.dtd">
<svg width="100%" height="100%" viewBox="0 0 1280 1280" version="1.1" xmlns="http://www.w3.org/2000/svg" xmlns:xlink="http://www.w3.org/1999/xlink" xml:space="preserve" xmlns:serif="http://www.serif.com/" style="fill-rule:evenodd;clip-rule:evenodd;stroke-linejoin:round;stroke-miterlimit:2;">
    <g id="Icon" transform="matrix(0.948548,0,0,0.968164,120.577,-92.8631)">
        <g id="Hat-Top" serif:id="Hat Top" transform="matrix(1.47428,0,0,1.47428,-313.476,140.748)">
            <g transform="matrix(1.73705,0,0,1.6834,-537.872,-0.455573)">
                <path d="M557.76,140.079L558.232,80.193C558.187,60.408 568.32,19.794 598.878,19.958L696.765,19.782C728.256,20.278 738.054,59.944 737.997,80.07L737.997,139.846C678.187,152.854 618.118,153.376 557.76,140.079Z" style="fill:rgb(33,139,130);"/>
            </g>
            <g transform="matrix(0.956723,0,0,0.927175,-86.7941,143.093)">
                <path d="M704.821,165.266L595.516,138.229L401.228,300.234L499.926,300.397L500.897,601.861L902.111,600.036L902.111,301.459L1001.18,301.092L833.212,138.229L704.821,165.266Z" style="fill:rgb(144,205,195);"/>
            </g>
            <g transform="matrix(0.956723,0,0,0.927175,-86.794,143.093)">
                <path d="M705.019,153.252L598.166,126.822C594.734,125.973 591.116,126.817 588.371,129.105L394.083,291.11C390.338,294.233 388.906,299.45 390.507,304.135C392.108,308.82 396.395,311.956 401.21,311.964L488.596,312.109C488.596,312.109 489.529,601.9 489.529,601.9C489.539,605.013 490.748,607.995 492.89,610.188C495.031,612.381 497.93,613.605 500.947,613.591L902.161,611.766C908.42,611.738 913.479,606.494 913.479,600.036L913.479,313.147C913.479,313.147 1001.22,312.822 1001.22,312.822C1005.88,312.805 1010.05,309.861 1011.76,305.392C1013.46,300.924 1012.36,295.833 1008.97,292.543L840.997,129.68C838.306,127.072 834.556,125.974 830.939,126.735L705.019,153.252ZM702.171,176.673C703.786,177.073 705.467,177.102 707.094,176.76L829.717,150.937C829.717,150.937 972.59,289.467 972.59,289.467C972.59,289.467 902.07,289.729 902.07,289.729C895.808,289.752 890.743,294.997 890.743,301.459L890.743,588.357C832.846,588.621 570.271,589.815 512.227,590.079C512.227,590.079 511.294,300.358 511.294,300.358C511.273,293.902 506.201,288.677 499.944,288.667L433.319,288.557C433.319,288.557 598.308,150.982 598.308,150.982C598.308,150.982 702.171,176.673 702.171,176.673Z" style="fill:rgb(33,139,130);"/>
            </g>
        </g>
        <g transform="matrix(2.5609,0,0,2.80012,-1155.57,117.781)">
            <g id="Hat-Brim" serif:id="Hat Brim">
                <path d="M537.945,128.823C576.875,142.369 622.622,148.27 666.942,148.526C712.535,148.788 757.342,142.05 797.627,129.325C807.118,129.298 815.674,140.956 806.458,145.844C767.028,166.755 716.599,176.488 666.942,176.237C617.045,175.984 567.119,165.476 527.482,146.245C518.398,141.838 527.256,129.392 537.945,128.823Z" style="fill:rgb(33,139,130);"/>
            </g>
        </g>
        <g transform="matrix(0.800003,0,0,0.742455,-859.946,-255.995)">
            <path d="M2007.41,1610.45C2005.83,1603.56 2000.99,1599.3 2000.99,1599.3C1992.05,1591.42 1982.07,1594.19 1981.82,1595.95C1981.57,1597.77 1992.01,1598.03 1996.18,1607.55C1996.18,1607.55 1997.97,1611.64 1996.68,1617.07C1992.97,1632.68 1954.23,1650.59 1918.71,1645.17C1879.09,1639.14 1856.9,1606.11 1852.06,1598.5C1839.46,1579.9 1817.24,1570.38 1795.62,1574.31C1782.44,1576.71 1770.14,1580.74 1761.76,1591.23C1753.38,1580.74 1741.08,1576.09 1727.9,1573.69C1706.28,1569.76 1684.06,1579.9 1671.47,1598.5C1666.62,1606.11 1644.43,1639.14 1604.81,1645.17C1569.29,1650.59 1530.55,1632.68 1526.84,1617.07C1525.55,1611.64 1527.34,1607.55 1527.34,1607.55C1531.51,1598.03 1541.96,1597.77 1541.7,1595.95C1541.45,1594.19 1531.47,1591.42 1522.53,1599.3C1522.53,1599.3 1517.7,1603.56 1516.12,1610.45C1511.51,1630.56 1546.7,1665.49 1584.35,1683.2C1598.46,1689.84 1623.47,1699.02 1658.18,1698.52C1670.66,1699.35 1695.87,1699.3 1723.26,1686.15C1741.58,1677.34 1754.17,1669.15 1761.76,1661.01C1769.35,1669.15 1781.94,1677.34 1800.27,1686.15C1827.65,1699.3 1852.86,1699.35 1865.34,1698.52C1900.06,1699.02 1925.06,1689.84 1939.17,1683.2C1976.82,1665.49 2012.02,1630.56 2007.41,1610.45Z" style="fill:rgb(33,139,130);fill-rule:nonzero;"/>
        </g>
        <g id="Magnifying-glass" serif:id="Magnifying glass" transform="matrix(1.13246,0,0,1.13246,-391.503,-15.753)">
            <g id="Handle" transform="matrix(1.73705,0,0,1.6834,-751.641,-109.253)">
                <path d="M1001.58,525.927L1084.62,637.898C1095.75,638.626 1104.08,632.694 1106.01,621.338L1021.82,510.56L1001.58,525.927Z" style="fill:rgb(33,139,130);"/>
            </g>
            <g id="Inner-Lens" serif:id="Inner Lens" transform="matrix(1.73705,0,0,1.6834,-751.006,-105.441)">
                <path d="M926.441,455.255L934.08,460.817C933.966,462.099 933.907,463.395 933.907,464.705C933.907,488.518 953.241,507.852 977.054,507.852C983.051,507.852 988.763,506.626 993.953,504.412L1001.58,509.968C994.291,513.933 985.933,516.185 977.054,516.185C948.642,516.185 925.574,493.118 925.574,464.705C925.574,461.477 925.872,458.318 926.441,455.255Z" style="fill:rgb(33,139,130);"/>
            </g>
            <g id="Outer-Lens" serif:id="Outer Lens" transform="matrix(0.904634,0,0,0.876694,6.22756,414.298)">
                <path d="M1039.05,174.737C970.27,174.737 914.537,230.691 914.537,299.471C914.537,368.251 970.27,424.205 1039.05,424.205C1107.83,424.205 1163.56,368.251 1163.56,299.471C1163.56,230.691 1107.83,174.737 1039.05,174.737ZM1039.05,189.093C1100.03,189.093 1149.65,238.489 1149.65,299.471C1149.65,360.453 1100.03,409.849 1039.05,409.849C978.068,409.849 928.451,360.453 928.451,299.471C928.451,238.489 978.068,189.093 1039.05,189.093Z" style="fill:rgb(33,139,130);"/>
            </g>
        </g>
        <g transform="matrix(0.811997,0,0,0.811997,69.7431,273.464)">
            <g transform="matrix(1.73705,0,0,1.6834,-628.725,96.3583)">
                <rect x="499.372" y="640" width="402.74" height="60.109" style="fill:rgb(144,205,195);"/>
            </g>
            <g transform="matrix(1.73705,0,0,1.6834,-628.725,96.3583)">
                <path d="M913.495,640C913.495,633.513 908.399,628.254 902.112,628.254L499.372,628.254C493.085,628.254 487.989,633.513 487.989,640L487.989,700.109C487.989,706.596 493.085,711.855 499.372,711.855L902.112,711.855C908.399,711.855 913.495,706.596 913.495,700.109L913.495,640ZM890.729,651.746L890.729,688.363C832.555,688.363 568.929,688.363 510.755,688.363C510.755,688.363 510.755,651.746 510.755,651.746C568.929,651.746 832.555,651.746 890.729,651.746L890.729,651.746Z" style="fill:rgb(33,139,130);"/>
            </g>
        </g>
    </g>
</svg>
